<svg width="15" height="15" viewBox="0 0 15 15" fill="none" xmlns="http://www.w3.org/2000/svg">
<path d="M3.31238 0.25H11.6876C11.8767 0.25 12.0301 0.403324 12.0301 0.59246V14.75H2.96992V0.59246C2.96992 0.403324 3.12325 0.25 3.31238 0.25Z" fill="#F95F5F" stroke="black" stroke-width="0.5"/>
<rect x="3.9375" y="5.31226" width="1.25" height="1.375" rx="0.0807899" fill="black"/>
<rect x="6.87502" y="5.31226" width="1.25" height="1.375" rx="0.0807899" fill="black"/>
<rect x="9.75002" y="5.31226" width="1.25" height="1.375" rx="0.0807899" fill="black"/>
<rect x="3.9375" y="8.18726" width="1.25" height="1.375" rx="0.0807899" fill="black"/>
<rect x="6.87502" y="8.18726" width="1.25" height="1.375" rx="0.0807899" fill="black"/>
<rect x="9.75002" y="8.18726" width="1.25" height="1.375" rx="0.0807899" fill="black"/>
<rect x="3.9375" y="11.125" width="1.25" height="1.375" rx="0.0807899" fill="black"/>
<rect x="9.75002" y="11.125" width="1.25" height="1.375" rx="0.0807899" fill="black"/>
<path d="M6.57089 11.2296C6.57089 11.1553 6.63118 11.095 6.70554 11.095H8.32134C8.39571 11.095 8.45599 11.1553 8.45599 11.2296V14.8652H6.57089V11.2296Z" fill="black"/>
<rect x="1.50808" y="3.04319" width="11.9838" height="1.05027" rx="0.32316" fill="black" stroke="black" stroke-width="0.16158"/>
<path d="M5.26489 2.4375H4.83887V1.69531H4.20776V2.4375H3.7793V0.660156H4.20776V1.36572H4.83887V0.660156H5.26489V2.4375ZM7.04224 1.58545C7.04224 1.75879 7.01009 1.91219 6.9458 2.04565C6.88151 2.17912 6.78996 2.28206 6.67114 2.35449C6.55314 2.42611 6.41846 2.46191 6.26709 2.46191C6.11572 2.46191 5.98145 2.42733 5.86426 2.35815C5.74707 2.28817 5.65552 2.18848 5.5896 2.05908C5.5245 1.92969 5.49032 1.78117 5.48706 1.61353V1.51343C5.48706 1.33927 5.5188 1.18587 5.58228 1.05322C5.64657 0.919759 5.73812 0.816813 5.85693 0.744385C5.97656 0.671957 6.11247 0.635742 6.26465 0.635742C6.4152 0.635742 6.54948 0.67155 6.66748 0.743164C6.78548 0.814779 6.87703 0.916911 6.94214 1.04956C7.00806 1.1814 7.04142 1.33276 7.04224 1.50366V1.58545ZM6.60645 1.51099C6.60645 1.33439 6.57674 1.20052 6.51733 1.10938C6.45874 1.01742 6.37451 0.971436 6.26465 0.971436C6.0498 0.971436 5.93628 1.13257 5.92407 1.45483L5.92285 1.58545C5.92285 1.7596 5.95174 1.89347 6.00952 1.98706C6.0673 2.08065 6.15316 2.12744 6.26709 2.12744C6.37533 2.12744 6.45874 2.08146 6.51733 1.9895C6.57593 1.89754 6.60563 1.7653 6.60645 1.59277V1.51099ZM8.55347 0.990967H8.02002V2.4375H7.59155V0.990967H7.06787V0.660156H8.55347V0.990967ZM9.83765 1.68433H9.16382V2.10791H9.95972V2.4375H8.73535V0.660156H9.96216V0.990967H9.16382V1.36572H9.83765V1.68433ZM10.5627 2.10791H11.3086V2.4375H10.1343V0.660156H10.5627V2.10791Z" fill="#FFFF00"/>
</svg>
