<svg width="19" height="14" viewBox="0 0 19 14" fill="none" xmlns="http://www.w3.org/2000/svg">
<mask id="path-1-inside-1" fill="white">
<path fill-rule="evenodd" clip-rule="evenodd" d="M8.92855 1.17648C9.22405 0.923595 9.6597 0.923595 9.95519 1.17648L16.4669 6.74921C17.0239 7.22598 16.6868 8.13849 15.9535 8.13849H14.331C14.335 8.17083 14.3371 8.20377 14.3371 8.2372V12.3862C14.3371 12.8222 13.9836 13.1756 13.5476 13.1756H5.33611C4.9001 13.1756 4.54664 12.8222 4.54664 12.3862V8.2372C4.54664 8.20377 4.54871 8.17083 4.55275 8.13849H2.93021C2.19696 8.13849 1.8598 7.22598 2.41689 6.74921L8.92855 1.17648ZM9.1787 8.89525C8.63368 8.89525 8.19186 9.33707 8.19186 9.88209V13.1685H10.823V9.88209C10.823 9.33707 10.3811 8.89525 9.83612 8.89525H9.1787Z"/>
</mask>
<g filter="url(#filter0_i)">
<path fill-rule="evenodd" clip-rule="evenodd" d="M8.92855 1.17648C9.22405 0.923595 9.6597 0.923595 9.95519 1.17648L16.4669 6.74921C17.0239 7.22598 16.6868 8.13849 15.9535 8.13849H14.331C14.335 8.17083 14.3371 8.20377 14.3371 8.2372V12.3862C14.3371 12.8222 13.9836 13.1756 13.5476 13.1756H5.33611C4.9001 13.1756 4.54664 12.8222 4.54664 12.3862V8.2372C4.54664 8.20377 4.54871 8.17083 4.55275 8.13849H2.93021C2.19696 8.13849 1.8598 7.22598 2.41689 6.74921L8.92855 1.17648ZM9.1787 8.89525C8.63368 8.89525 8.19186 9.33707 8.19186 9.88209V13.1685H10.823V9.88209C10.823 9.33707 10.3811 8.89525 9.83612 8.89525H9.1787Z" fill="#71FF71"/>
</g>
<path d="M9.95519 1.17648L10.2387 0.845192L10.2387 0.845192L9.95519 1.17648ZM8.92855 1.17648L8.64503 0.845192V0.845192L8.92855 1.17648ZM16.4669 6.74921L16.7504 6.41792V6.41792L16.4669 6.74921ZM14.331 8.13849V7.70245H13.8371L13.8983 8.19246L14.331 8.13849ZM4.55275 8.13849L4.98544 8.19246L5.04656 7.70245H4.55275V8.13849ZM2.41689 6.74921L2.13337 6.41792H2.13337L2.41689 6.74921ZM8.19186 13.1685H7.75581V13.6045H8.19186V13.1685ZM10.823 13.1685V13.6045H11.259V13.1685H10.823ZM10.2387 0.845192C9.78001 0.452629 9.10374 0.45263 8.64503 0.845192L9.21207 1.50777C9.34436 1.39456 9.53939 1.39456 9.67167 1.50777L10.2387 0.845192ZM16.7504 6.41792L10.2387 0.845192L9.67167 1.50777L16.1833 7.0805L16.7504 6.41792ZM15.9535 8.57454C17.0918 8.57454 17.6152 7.15802 16.7504 6.41792L16.1833 7.0805C16.4327 7.29394 16.2818 7.70245 15.9535 7.70245V8.57454ZM14.331 8.57454H15.9535V7.70245H14.331V8.57454ZM14.7731 8.2372C14.7731 8.18569 14.7699 8.13472 14.7637 8.08453L13.8983 8.19246C13.9001 8.20694 13.901 8.22186 13.901 8.2372H14.7731ZM14.7731 12.3862V8.2372H13.901V12.3862H14.7731ZM13.5476 13.6117C14.2244 13.6117 14.7731 13.063 14.7731 12.3862H13.901C13.901 12.5814 13.7428 12.7396 13.5476 12.7396V13.6117ZM5.33611 13.6117H13.5476V12.7396H5.33611V13.6117ZM4.11059 12.3862C4.11059 13.063 4.65927 13.6117 5.33611 13.6117V12.7396C5.14092 12.7396 4.98268 12.5814 4.98268 12.3862H4.11059ZM4.11059 8.2372V12.3862H4.98268V8.2372H4.11059ZM4.12005 8.08452C4.11379 8.13472 4.11059 8.18569 4.11059 8.2372H4.98268C4.98268 8.22186 4.98364 8.20694 4.98544 8.19246L4.12005 8.08452ZM2.93021 8.57454H4.55275V7.70245H2.93021V8.57454ZM2.13337 6.41792C1.26858 7.15802 1.79196 8.57454 2.93021 8.57454V7.70245C2.60196 7.70245 2.45102 7.29394 2.70041 7.0805L2.13337 6.41792ZM8.64503 0.845192L2.13337 6.41792L2.70041 7.0805L9.21207 1.50777L8.64503 0.845192ZM8.62791 9.88209C8.62791 9.57789 8.87451 9.33129 9.1787 9.33129V8.4592C8.39286 8.4592 7.75581 9.09625 7.75581 9.88209H8.62791ZM8.62791 13.1685V9.88209H7.75581V13.1685H8.62791ZM10.823 12.7325H8.19186V13.6045H10.823V12.7325ZM10.3869 9.88209V13.1685H11.259V9.88209H10.3869ZM9.83612 9.33129C10.1403 9.33129 10.3869 9.57789 10.3869 9.88209H11.259C11.259 9.09625 10.622 8.4592 9.83612 8.4592V9.33129ZM9.1787 9.33129H9.83612V8.4592H9.1787V9.33129Z" fill="black" mask="url(#path-1-inside-1)"/>
<g filter="url(#filter1_d)">
<path d="M2 8.03991L9.5 1.72412L17 8.03991" stroke="#135514" stroke-width="1.57895"/>
</g>
<defs>
<filter id="filter0_i" x="2.13916" y="0.986816" width="14.6054" height="12.1888" filterUnits="userSpaceOnUse" color-interpolation-filters="sRGB">
<feFlood flood-opacity="0" result="BackgroundImageFix"/>
<feBlend mode="normal" in="SourceGraphic" in2="BackgroundImageFix" result="shape"/>
<feColorMatrix in="SourceAlpha" type="matrix" values="0 0 0 0 0 0 0 0 0 0 0 0 0 0 0 0 0 0 127 0" result="hardAlpha"/>
<feOffset/>
<feGaussianBlur stdDeviation="1.77632"/>
<feComposite in2="hardAlpha" operator="arithmetic" k2="-1" k3="1"/>
<feColorMatrix type="matrix" values="0 0 0 0 0 0 0 0 0 0 0 0 0 0 0 0 0 0 0.25 0"/>
<feBlend mode="normal" in2="shape" result="effect1_innerShadow"/>
</filter>
<filter id="filter1_d" x="0.899365" y="0.691895" width="17.2013" height="9.13599" filterUnits="userSpaceOnUse" color-interpolation-filters="sRGB">
<feFlood flood-opacity="0" result="BackgroundImageFix"/>
<feColorMatrix in="SourceAlpha" type="matrix" values="0 0 0 0 0 0 0 0 0 0 0 0 0 0 0 0 0 0 127 0" result="hardAlpha"/>
<feOffset dy="0.592105"/>
<feGaussianBlur stdDeviation="0.296053"/>
<feComposite in2="hardAlpha" operator="out"/>
<feColorMatrix type="matrix" values="0 0 0 0 0 0 0 0 0 0 0 0 0 0 0 0 0 0 0.25 0"/>
<feBlend mode="normal" in2="BackgroundImageFix" result="effect1_dropShadow"/>
<feBlend mode="normal" in="SourceGraphic" in2="effect1_dropShadow" result="shape"/>
</filter>
</defs>
</svg>
