<svg width="15" height="15" viewBox="0 0 15 15" fill="none" xmlns="http://www.w3.org/2000/svg">
<mask id="path-1-inside-1" fill="white">
<path d="M2.74854 0.59246C2.74854 0.265253 3.01379 0 3.34099 0H11.7162C12.0434 0 12.3087 0.265253 12.3087 0.59246V15H2.74854V0.59246Z"/>
</mask>
<path d="M2.74854 0.59246C2.74854 0.265253 3.01379 0 3.34099 0H11.7162C12.0434 0 12.3087 0.265253 12.3087 0.59246V15H2.74854V0.59246Z" fill="#C81B1B" stroke="black" stroke-width="1.2924" mask="url(#path-1-inside-1)"/>
<rect x="3.9375" y="5.31226" width="1.60819" height="1.60819" rx="0.08079" fill="black"/>
<rect x="3.94737" y="11.0818" width="1.60819" height="1.60819" rx="0.08079" fill="black"/>
<rect x="3.91814" y="8.21631" width="1.60819" height="1.60819" rx="0.08079" fill="black"/>
<rect x="6.69591" y="8.21631" width="1.60819" height="1.60819" rx="0.08079" fill="black"/>
<rect x="6.69591" y="5.32153" width="1.60819" height="1.60819" rx="0.08079" fill="black"/>
<rect x="9.47368" y="5.32153" width="1.60819" height="1.60819" rx="0.08079" fill="black"/>
<rect x="9.47368" y="8.21631" width="1.60819" height="1.60819" rx="0.08079" fill="black"/>
<rect x="9.47368" y="11.0818" width="1.60819" height="1.60819" rx="0.08079" fill="black"/>
<path d="M6.57089 11.2296C6.57089 11.1553 6.63118 11.095 6.70554 11.095H8.32134C8.39571 11.095 8.45599 11.1553 8.45599 11.2296V14.8652H6.57089V11.2296Z" fill="black"/>
<rect x="1.50808" y="3.04319" width="11.9838" height="1.05027" rx="0.32316" fill="black" stroke="black" stroke-width="0.16158"/>
<path d="M5.26563 2.52637H4.8396V1.78418H4.2085V2.52637H3.78003V0.749023H4.2085V1.45459H4.8396V0.749023H5.26563V2.52637ZM7.04297 1.67432C7.04297 1.84766 7.01082 2.00106 6.94653 2.13452C6.88224 2.26799 6.79069 2.37093 6.67188 2.44336C6.55387 2.51497 6.41919 2.55078 6.26782 2.55078C6.11646 2.55078 5.98218 2.51619 5.86499 2.44702C5.7478 2.37703 5.65625 2.27734 5.59033 2.14795C5.52523 2.01855 5.49105 1.87004 5.48779 1.70239V1.60229C5.48779 1.42814 5.51953 1.27474 5.58301 1.14209C5.6473 1.00863 5.73885 0.90568 5.85767 0.833252C5.9773 0.760824 6.1132 0.724609 6.26538 0.724609C6.41593 0.724609 6.55021 0.760417 6.66821 0.832031C6.78621 0.903646 6.87777 1.00578 6.94287 1.13843C7.00879 1.27026 7.04216 1.42163 7.04297 1.59253V1.67432ZM6.60718 1.59985C6.60718 1.42326 6.57747 1.28939 6.51807 1.19824C6.45947 1.10628 6.37524 1.0603 6.26538 1.0603C6.05054 1.0603 5.93701 1.22144 5.92481 1.5437L5.92358 1.67432C5.92358 1.84847 5.95247 1.98234 6.01025 2.07593C6.06803 2.16951 6.15389 2.21631 6.26782 2.21631C6.37606 2.21631 6.45947 2.17033 6.51807 2.07837C6.57666 1.98641 6.60636 1.85417 6.60718 1.68164V1.59985ZM8.5542 1.07983H8.02075V2.52637H7.59229V1.07983H7.0686V0.749023H8.5542V1.07983ZM9.83838 1.77319H9.16455V2.19678H9.96045V2.52637H8.73608V0.749023H9.96289V1.07983H9.16455V1.45459H9.83838V1.77319ZM10.5635 2.19678H11.3093V2.52637H10.135V0.749023H10.5635V2.19678Z" fill="#FFFF00"/>
</svg>
