<svg width="5500" height="1429" viewBox="0 0 5500 1429" fill="none" xmlns="http://www.w3.org/2000/svg">
<g filter="url(#filter0_d)">
<path d="M1053.35 172.2L1047.35 370.2C1047.35 479 1050.55 576.6 1056.95 663C1063.35 748.6 1077.75 841.8 1100.15 942.6C1082.55 957 1054.55 964.2 1016.15 964.2C941.755 964.2 904.555 931.8 904.555 867C904.555 813.4 906.955 731.4 911.755 621C917.355 510.6 920.155 424.2 920.155 361.8C876.955 424.2 831.355 501.4 783.355 593.4C736.155 684.6 712.555 740.6 712.555 761.4C712.555 782.2 714.555 798.2 718.555 809.4C700.955 820.6 677.355 826.2 647.755 826.2C618.955 826.2 594.555 818.2 574.555 802.2C555.355 786.2 538.955 764.2 525.355 736.2C512.555 708.2 489.355 653.4 455.755 571.8C422.955 489.4 392.955 418.6 365.755 359.4C344.955 488.2 334.555 602.2 334.555 701.4C334.555 800.6 337.755 881 344.155 942.6C318.555 952.2 292.955 957 267.355 957C216.155 957 190.555 931.4 190.555 880.2C190.555 841 199.355 763 216.955 646.2C235.355 528.6 244.555 429.4 244.555 348.6C244.555 267.8 240.155 192.2 231.355 121.8C274.555 110.6 308.155 105 332.155 105C376.155 105 405.755 120.6 420.955 151.8C444.955 202.2 480.155 282.6 526.555 393C573.755 502.6 612.155 587 641.755 646.2C649.755 629.4 668.155 593.4 696.955 538.2C726.555 482.2 750.955 434.6 770.155 395.4C790.155 355.4 810.155 308.2 830.155 253.8C850.955 198.6 864.155 150.6 869.755 109.8C898.555 101.8 926.555 97.8 953.755 97.8C981.755 97.8 1005.35 103.8 1024.55 115.8C1043.75 127.8 1053.35 146.6 1053.35 172.2Z" fill="url(#paint0_linear)"/>
<path d="M1434.12 971.4C1346.12 971.4 1281.32 945.8 1239.72 894.6C1198.12 842.6 1177.32 770.6 1177.32 678.6C1177.32 585.8 1204.92 505.4 1260.12 437.4C1315.32 369.4 1386.12 335.4 1472.52 335.4C1650.12 335.4 1738.92 435.4 1738.92 635.4C1738.92 729 1710.12 808.6 1652.52 874.2C1594.92 939 1522.12 971.4 1434.12 971.4ZM1347.72 467.4C1333.32 513.8 1326.12 560.2 1326.12 606.6C1326.12 653 1327.72 689 1330.92 714.6C1334.12 740.2 1340.12 765.8 1348.92 791.4C1367.32 843.4 1403.32 869.4 1456.92 869.4C1511.32 869.4 1546.92 855 1563.72 826.2C1581.32 797.4 1590.12 753 1590.12 693C1590.12 522.6 1549.72 437.4 1468.92 437.4C1422.52 437.4 1382.12 447.4 1347.72 467.4ZM2392.5 472.2L2380.5 736.2C2380.5 809 2391.7 880.2 2414.1 949.8C2391.7 959.4 2366.1 964.2 2337.3 964.2C2269.3 964.2 2235.3 926.2 2235.3 850.2C2235.3 815.8 2239.7 758.2 2248.5 677.4C2257.3 595.8 2261.7 544.6 2261.7 523.8C2261.7 483.8 2243.7 463.8 2207.7 463.8C2181.3 463.8 2151.3 483 2117.7 521.4C2084.9 559 2056.5 601.4 2032.5 648.6C2009.3 695 1995.7 733.4 1991.7 763.8C1994.9 826.2 2002.9 885.8 2015.7 942.6C1990.1 952.2 1963.3 957 1935.3 957C1908.1 957 1885.7 950.6 1868.1 937.8C1851.3 924.2 1842.9 905.8 1842.9 882.6C1842.9 858.6 1846.5 816.2 1853.7 755.4C1860.9 693.8 1864.5 633 1864.5 573C1864.5 512.2 1855.3 442.6 1836.9 364.2C1862.5 354.6 1889.7 349.8 1918.5 349.8C1947.3 349.8 1970.5 358.2 1988.1 375C2006.5 391.8 2015.7 412.6 2015.7 437.4C2015.7 462.2 2012.5 501.8 2006.1 556.2C2036.5 499.4 2076.1 449.8 2124.9 407.4C2173.7 364.2 2222.5 342.6 2271.3 342.6C2352.1 342.6 2392.5 385.8 2392.5 472.2ZM2754.82 971.4C2666.82 971.4 2602.02 945.8 2560.42 894.6C2518.82 842.6 2498.02 770.6 2498.02 678.6C2498.02 585.8 2525.62 505.4 2580.82 437.4C2636.02 369.4 2706.82 335.4 2793.22 335.4C2970.82 335.4 3059.62 435.4 3059.62 635.4C3059.62 729 3030.82 808.6 2973.22 874.2C2915.62 939 2842.82 971.4 2754.82 971.4ZM2668.42 467.4C2654.02 513.8 2646.82 560.2 2646.82 606.6C2646.82 653 2648.42 689 2651.62 714.6C2654.82 740.2 2660.82 765.8 2669.62 791.4C2688.02 843.4 2724.02 869.4 2777.62 869.4C2832.02 869.4 2867.62 855 2884.42 826.2C2902.02 797.4 2910.82 753 2910.82 693C2910.82 522.6 2870.42 437.4 2789.62 437.4C2743.22 437.4 2702.82 447.4 2668.42 467.4ZM3308.8 839.4C3341.6 851.4 3379.6 857.4 3422.8 857.4C3466 857.4 3504 849 3536.8 832.2C3576 765 3595.6 684.6 3595.6 591C3595.6 496.6 3579.2 449.4 3546.4 449.4C3505.6 449.4 3459.6 490.6 3408.4 573C3358 655.4 3324.8 744.2 3308.8 839.4ZM3308.8 593.4C3393.6 426.2 3487.6 342.6 3590.8 342.6C3645.2 342.6 3684 365 3707.2 409.8C3731.2 453.8 3743.2 509.8 3743.2 577.8C3743.2 675.4 3714.4 764.2 3656.8 844.2C3599.2 924.2 3526.8 964.2 3439.6 964.2C3390 964.2 3344.8 956.2 3304 940.2C3305.6 1049.8 3312.4 1150.2 3324.4 1241.4C3298.8 1251 3272.4 1255.8 3245.2 1255.8C3218 1255.8 3195.6 1246.6 3178 1228.2C3160.4 1210.6 3151.6 1183.4 3151.6 1146.6C3151.6 1109.8 3156.4 1047 3166 958.2C3175.6 869.4 3180.4 799.8 3180.4 749.4C3180.4 583 3171.6 454.6 3154 364.2C3179.6 354.6 3206.4 349.8 3234.4 349.8C3263.2 349.8 3285.2 358.2 3300.4 375C3316.4 391 3324.4 416.6 3324.4 451.8C3324.4 486.2 3319.2 533.4 3308.8 593.4ZM4060.29 971.4C3972.29 971.4 3907.49 945.8 3865.89 894.6C3824.29 842.6 3803.49 770.6 3803.49 678.6C3803.49 585.8 3831.09 505.4 3886.29 437.4C3941.49 369.4 4012.29 335.4 4098.69 335.4C4276.29 335.4 4365.09 435.4 4365.09 635.4C4365.09 729 4336.29 808.6 4278.69 874.2C4221.09 939 4148.29 971.4 4060.29 971.4ZM3973.89 467.4C3959.49 513.8 3952.29 560.2 3952.29 606.6C3952.29 653 3953.89 689 3957.09 714.6C3960.29 740.2 3966.29 765.8 3975.09 791.4C3993.49 843.4 4029.49 869.4 4083.09 869.4C4137.49 869.4 4173.09 855 4189.89 826.2C4207.49 797.4 4216.29 753 4216.29 693C4216.29 522.6 4175.89 437.4 4095.09 437.4C4048.69 437.4 4008.29 447.4 3973.89 467.4ZM4472.67 71.4C4498.27 61.7999 4524.67 56.9999 4551.87 56.9999C4579.07 56.9999 4601.47 66.1999 4619.07 84.5999C4637.47 102.2 4646.67 126.6 4646.67 157.8C4646.67 188.2 4642.27 249.8 4633.47 342.6C4625.47 434.6 4621.47 507 4621.47 559.8C4621.47 690.2 4630.67 817.8 4649.07 942.6C4623.47 952.2 4596.27 957 4567.47 957C4505.87 957 4475.07 927 4475.07 867C4475.07 838.2 4479.47 781.8 4488.27 697.8C4497.07 613 4501.47 545 4501.47 493.8C4501.47 323.4 4491.87 182.6 4472.67 71.4ZM4794.94 757.8L4806.94 585C4806.94 507.4 4795.74 433.8 4773.34 364.2C4795.74 354.6 4823.34 349.8 4856.14 349.8C4920.14 349.8 4952.14 385.4 4952.14 456.6C4952.14 488.6 4947.74 533.8 4938.94 592.2C4930.14 650.6 4925.74 691 4925.74 713.4C4925.74 735 4926.14 751 4926.94 761.4C4927.74 771 4929.74 782.6 4932.94 796.2C4937.74 823.4 4953.34 837 4979.74 837C5006.94 837 5035.74 815.8 5066.14 773.4C5097.34 730.2 5122.14 682.6 5140.54 630.6C5159.74 578.6 5169.34 537.4 5169.34 507C5165.34 443.8 5158.54 396.2 5148.94 364.2C5174.54 354.6 5200.54 349.8 5226.94 349.8C5254.14 349.8 5276.54 358.2 5294.14 375C5312.54 391.8 5321.74 414.2 5321.74 442.2C5321.74 879 5241.74 1141 5081.74 1228.2C5045.74 1247.4 5004.94 1257 4959.34 1257C4913.74 1257 4873.74 1245 4839.34 1221C4805.74 1197 4788.94 1163.4 4788.94 1120.2C4788.94 1091.4 4799.74 1067 4821.34 1047C4842.94 1027.8 4868.54 1018.2 4898.14 1018.2C4904.54 1018.2 4912.54 1019 4922.14 1020.6C4919.74 1031 4918.54 1040.2 4918.54 1048.2C4918.54 1118.6 4942.94 1153.8 4991.74 1153.8C5021.34 1153.8 5048.14 1137.8 5072.14 1105.8C5096.14 1073.8 5115.34 1034.6 5129.74 988.2C5157.74 893.8 5171.74 808.2 5171.74 731.4C5147.74 796.2 5114.94 848.6 5073.34 888.6C5032.54 927.8 4988.14 947.4 4940.14 947.4C4843.34 947.4 4794.94 884.2 4794.94 757.8Z" fill="white"/>
<path d="M436.452 1097.6C465.252 1090 490.352 1086.2 511.752 1086.2C557.552 1086.2 580.452 1102.1 580.452 1133.9C580.452 1153.3 571.352 1168.1 553.152 1178.3C565.352 1181.3 575.452 1187.1 583.452 1195.7C591.452 1204.1 595.452 1214.7 595.452 1227.5C595.452 1251.5 586.552 1270.1 568.752 1283.3C550.952 1296.3 528.952 1302.8 502.752 1302.8C476.552 1302.8 453.852 1297.6 434.652 1287.2C440.852 1265.6 443.952 1236.5 443.952 1199.9C443.952 1163.1 441.452 1129 436.452 1097.6ZM481.752 1270.4C490.552 1273.2 499.352 1274.6 508.152 1274.6C521.952 1274.6 533.352 1271.2 542.352 1264.4C551.352 1257.4 555.852 1247.6 555.852 1235C555.852 1211 542.852 1199 516.852 1199C504.452 1199 491.852 1201.6 479.052 1206.8C479.052 1227 479.952 1248.2 481.752 1270.4ZM478.752 1180.4C481.552 1179.8 485.652 1179.1 491.052 1178.3C496.652 1177.5 500.952 1176.8 503.952 1176.2C506.952 1175.6 510.652 1174.7 515.052 1173.5C519.652 1172.3 523.152 1170.9 525.552 1169.3C528.152 1167.5 530.752 1165.3 533.352 1162.7C538.352 1157.7 540.852 1150.4 540.852 1140.8C540.852 1122.2 529.752 1112.9 507.552 1112.9C500.352 1112.9 491.552 1114.1 481.152 1116.5C479.552 1157.5 478.752 1178.8 478.752 1180.4ZM677.575 1304.6C655.575 1304.6 639.375 1298.2 628.975 1285.4C618.575 1272.4 613.375 1254.4 613.375 1231.4C613.375 1208.2 620.275 1188.1 634.075 1171.1C647.875 1154.1 665.575 1145.6 687.175 1145.6C731.575 1145.6 753.775 1170.6 753.775 1220.6C753.775 1244 746.575 1263.9 732.175 1280.3C717.775 1296.5 699.575 1304.6 677.575 1304.6ZM655.975 1178.6C652.375 1190.2 650.575 1201.8 650.575 1213.4C650.575 1225 650.975 1234 651.775 1240.4C652.575 1246.8 654.075 1253.2 656.275 1259.6C660.875 1272.6 669.875 1279.1 683.275 1279.1C696.875 1279.1 705.775 1275.5 709.975 1268.3C714.375 1261.1 716.575 1250 716.575 1235C716.575 1192.4 706.475 1171.1 686.275 1171.1C674.675 1171.1 664.575 1173.6 655.975 1178.6ZM914.47 1159.7C909.07 1182.7 906.37 1205.8 906.37 1229C906.37 1252 908.97 1274.8 914.17 1297.4C906.97 1299.8 899.57 1301 891.97 1301C884.37 1301 879.07 1298.8 876.07 1294.4C873.07 1289.8 871.57 1283.3 871.57 1274.9C871.57 1266.3 872.87 1254.6 875.47 1239.8C861.27 1270.2 847.57 1289.4 834.37 1297.4C828.37 1301 822.17 1302.8 815.77 1302.8C800.57 1302.8 788.77 1297.2 780.37 1286C771.97 1274.6 767.77 1260.5 767.77 1243.7C767.77 1218.1 774.87 1195.7 789.07 1176.5C803.27 1157.1 821.67 1147.4 844.27 1147.4C867.07 1147.4 890.47 1151.5 914.47 1159.7ZM875.17 1177.7C864.57 1174.5 855.57 1172.9 848.17 1172.9C833.17 1172.9 821.97 1176.2 814.57 1182.8C807.77 1199.6 804.37 1216.7 804.37 1234.1C804.37 1243.3 805.77 1252.6 808.57 1262C811.57 1271.4 816.07 1276.1 822.07 1276.1C829.07 1276.1 838.07 1265.8 849.07 1245.2C860.07 1224.6 868.77 1202.1 875.17 1177.7ZM984.946 1297.4C978.746 1299.8 972.146 1301 965.146 1301C958.146 1301 952.446 1299.4 948.046 1296.2C943.846 1292.8 941.746 1288.2 941.746 1282.4C941.746 1276.4 942.646 1265.6 944.446 1250C946.246 1234.4 947.146 1219.3 947.146 1204.7C947.146 1189.9 944.846 1172.6 940.246 1152.8C946.646 1150.4 952.946 1149.2 959.146 1149.2C965.346 1149.2 970.646 1151.3 975.046 1155.5C979.646 1159.7 981.946 1165.3 981.946 1172.3C981.946 1175.9 981.346 1181.3 980.146 1188.5C978.946 1195.5 978.246 1200.8 978.046 1204.4C985.846 1186.6 995.046 1172.7 1005.65 1162.7C1016.45 1152.5 1027.15 1147.4 1037.75 1147.4C1045.15 1147.4 1051.05 1150 1055.45 1155.2C1059.85 1160.4 1062.05 1167 1062.05 1175C1062.05 1182.8 1060.05 1189.2 1056.05 1194.2C1052.05 1199 1047.05 1201.4 1041.05 1201.4C1035.25 1201.4 1030.55 1200.8 1026.95 1199.6C1027.55 1197.2 1027.85 1195 1027.85 1193C1027.85 1184.8 1024.95 1180.7 1019.15 1180.7C1010.35 1180.7 1002.05 1189.6 994.246 1207.4C986.646 1225 981.546 1241.5 978.946 1256.9C979.946 1271.9 981.946 1285.4 984.946 1297.4ZM1173.06 1079.6C1179.46 1077.2 1186.06 1076 1192.86 1076C1199.66 1076 1205.26 1078.3 1209.66 1082.9C1214.06 1087.3 1216.26 1092.9 1216.26 1099.7C1216.26 1106.3 1215.26 1122.1 1213.26 1147.1C1211.26 1171.9 1210.26 1196.4 1210.26 1220.6C1210.26 1244.6 1212.66 1270.2 1217.46 1297.4C1210.26 1299.8 1202.76 1301 1194.96 1301C1181.76 1301 1175.16 1291.7 1175.16 1273.1C1175.16 1266.9 1176.46 1255.8 1179.06 1239.8C1170.66 1257.6 1163.16 1270.8 1156.56 1279.4C1150.16 1288 1143.86 1294.1 1137.66 1297.7C1131.66 1301.1 1125.26 1302.8 1118.46 1302.8C1103.26 1302.8 1091.56 1297.2 1083.36 1286C1075.36 1274.8 1071.36 1261 1071.36 1244.6C1071.36 1228.2 1074.26 1212.8 1080.06 1198.4C1086.06 1183.8 1094.96 1171.7 1106.76 1162.1C1118.76 1152.3 1131.46 1147.4 1144.86 1147.4C1158.26 1147.4 1169.86 1149.2 1179.66 1152.8C1179.26 1127 1177.06 1102.6 1173.06 1079.6ZM1179.66 1178.3C1169.86 1174.7 1159.26 1172.9 1147.86 1172.9C1136.46 1172.9 1126.66 1176.2 1118.46 1182.8C1111.66 1199 1108.26 1217.1 1108.26 1237.1C1108.26 1246.3 1109.56 1255.1 1112.16 1263.5C1114.76 1271.9 1119.06 1276.1 1125.06 1276.1C1134.26 1276.1 1144.66 1265.8 1156.26 1245.2C1168.06 1224.6 1175.86 1202.3 1179.66 1178.3ZM1431.91 1177.7C1421.31 1174.5 1410.81 1172.9 1400.41 1172.9C1390.01 1172.9 1380.21 1176 1371.01 1182.2C1363.81 1196.6 1360.21 1211.9 1360.21 1228.1C1360.21 1237.5 1361.51 1246.7 1364.11 1255.7C1366.71 1264.5 1371.01 1268.9 1377.01 1268.9C1383.81 1268.9 1392.91 1259.2 1404.31 1239.8C1415.71 1220.4 1424.91 1199.7 1431.91 1177.7ZM1386.91 1350.2C1399.71 1350.2 1409.71 1345.8 1416.91 1337C1424.11 1328.2 1427.71 1316.9 1427.71 1303.1C1427.71 1296.3 1427.21 1286.4 1426.21 1273.4C1425.41 1260.4 1424.91 1251.2 1424.71 1245.8C1410.51 1270.6 1398.11 1285.8 1387.51 1291.4C1382.11 1294.2 1376.41 1295.6 1370.41 1295.6C1355.41 1295.6 1343.81 1289.7 1335.61 1277.9C1327.41 1266.1 1323.31 1251.7 1323.31 1234.7C1323.31 1211.5 1330.51 1191.2 1344.91 1173.8C1359.51 1156.2 1377.91 1147.4 1400.11 1147.4C1422.51 1147.4 1445.11 1151.3 1467.91 1159.1C1461.91 1180.5 1458.91 1201.5 1458.91 1222.1C1458.91 1231.9 1459.61 1244.1 1461.01 1258.7C1462.41 1273.1 1463.11 1283.8 1463.11 1290.8C1463.11 1315.4 1455.31 1335.7 1439.71 1351.7C1424.11 1367.9 1404.11 1376 1379.71 1376C1365.31 1376 1352.91 1373.2 1342.51 1367.6C1332.31 1362.2 1327.21 1353.7 1327.21 1342.1C1327.21 1334.9 1329.91 1328.8 1335.31 1323.8C1340.71 1318.8 1347.11 1316.3 1354.51 1316.3C1356.11 1316.3 1358.11 1316.5 1360.51 1316.9C1359.91 1319.5 1359.61 1321.8 1359.61 1323.8C1359.61 1331 1362.31 1337.2 1367.71 1342.4C1373.11 1347.6 1379.51 1350.2 1386.91 1350.2ZM1632.54 1159.7C1627.14 1182.7 1624.44 1205.8 1624.44 1229C1624.44 1252 1627.04 1274.8 1632.24 1297.4C1625.04 1299.8 1617.64 1301 1610.04 1301C1602.44 1301 1597.14 1298.8 1594.14 1294.4C1591.14 1289.8 1589.64 1283.3 1589.64 1274.9C1589.64 1266.3 1590.94 1254.6 1593.54 1239.8C1579.34 1270.2 1565.64 1289.4 1552.44 1297.4C1546.44 1301 1540.24 1302.8 1533.84 1302.8C1518.64 1302.8 1506.84 1297.2 1498.44 1286C1490.04 1274.6 1485.84 1260.5 1485.84 1243.7C1485.84 1218.1 1492.94 1195.7 1507.14 1176.5C1521.34 1157.1 1539.74 1147.4 1562.34 1147.4C1585.14 1147.4 1608.54 1151.5 1632.54 1159.7ZM1593.24 1177.7C1582.64 1174.5 1573.64 1172.9 1566.24 1172.9C1551.24 1172.9 1540.04 1176.2 1532.64 1182.8C1525.84 1199.6 1522.44 1216.7 1522.44 1234.1C1522.44 1243.3 1523.84 1252.6 1526.64 1262C1529.64 1271.4 1534.14 1276.1 1540.14 1276.1C1547.14 1276.1 1556.14 1265.8 1567.14 1245.2C1578.14 1224.6 1586.84 1202.1 1593.24 1177.7ZM1888.11 1179.8L1885.11 1244C1885.11 1263.4 1887.91 1281.8 1893.51 1299.2C1887.91 1301.6 1881.51 1302.8 1874.31 1302.8C1857.31 1302.8 1848.81 1293.3 1848.81 1274.3C1848.81 1265.7 1849.91 1251.3 1852.11 1231.1C1854.31 1210.7 1855.41 1197.9 1855.41 1192.7C1855.41 1182.7 1851.31 1177.7 1843.11 1177.7C1834.11 1177.7 1823.31 1186.9 1810.71 1205.3C1798.31 1223.7 1792.11 1238.1 1792.11 1248.5C1793.11 1264.3 1795.91 1280 1800.51 1295.6C1792.91 1298 1786.51 1299.2 1781.31 1299.2C1764.31 1299.2 1755.81 1289.7 1755.81 1270.7C1755.81 1262.7 1756.91 1249.3 1759.11 1230.5C1761.31 1211.7 1762.41 1199.9 1762.41 1195.1C1762.41 1185.1 1757.91 1180.1 1748.91 1180.1C1742.71 1180.1 1735.61 1184.7 1727.61 1193.9C1719.61 1203.1 1712.81 1213.3 1707.21 1224.5C1701.81 1235.5 1698.91 1244.3 1698.51 1250.9C1699.51 1268.1 1701.51 1283.6 1704.51 1297.4C1698.11 1299.8 1691.41 1301 1684.41 1301C1677.61 1301 1672.01 1299.4 1667.61 1296.2C1663.41 1292.8 1661.31 1288.2 1661.31 1282.4C1661.31 1276.4 1662.21 1265.8 1664.01 1250.6C1665.81 1235.2 1666.71 1220 1666.71 1205C1666.71 1189.8 1664.41 1172.4 1659.81 1152.8C1666.21 1150.4 1673.01 1149.2 1680.21 1149.2C1687.41 1149.2 1693.21 1151.3 1697.61 1155.5C1702.21 1159.7 1704.51 1165.3 1704.51 1172.3C1704.51 1175.9 1703.81 1184.7 1702.41 1198.7C1709.81 1185.5 1719.21 1174.1 1730.61 1164.5C1742.01 1154.7 1753.41 1149.8 1764.81 1149.8C1785.01 1149.8 1795.11 1160.6 1795.11 1182.2C1795.11 1187.6 1794.81 1193.6 1794.21 1200.2C1801.61 1186.2 1811.11 1173.9 1822.71 1163.3C1834.51 1152.7 1846.21 1147.4 1857.81 1147.4C1878.01 1147.4 1888.11 1158.2 1888.11 1179.8ZM1951.05 1232.9C1951.05 1247.3 1953.35 1258.7 1957.95 1267.1C1962.55 1275.3 1970.25 1279.4 1981.05 1279.4C1991.85 1279.4 2000.25 1275.8 2006.25 1268.6C2012.45 1261.2 2015.55 1252.3 2015.55 1241.9C2022.35 1241.9 2028.25 1243.6 2033.25 1247C2038.25 1250.4 2040.75 1255.1 2040.75 1261.1C2040.75 1273.5 2034.15 1283.9 2020.95 1292.3C2007.75 1300.5 1993.85 1304.6 1979.25 1304.6C1956.45 1304.6 1939.95 1298.5 1929.75 1286.3C1919.55 1273.9 1914.45 1255.6 1914.45 1231.4C1914.45 1207.2 1921.25 1186.9 1934.85 1170.5C1948.65 1153.9 1966.95 1145.6 1989.75 1145.6C2005.35 1145.6 2017.85 1149.2 2027.25 1156.4C2036.85 1163.4 2041.65 1174.4 2041.65 1189.4C2041.65 1204.2 2034.85 1215.4 2021.25 1223C2007.85 1230.4 1991.45 1234.1 1972.05 1234.1C1965.25 1234.1 1958.25 1233.7 1951.05 1232.9ZM1951.35 1209.2C1957.35 1210.4 1963.65 1211 1970.25 1211C1984.65 1211 1996.75 1208.3 2006.55 1202.9C2007.75 1198.1 2008.35 1194.3 2008.35 1191.5C2008.35 1184.5 2005.85 1179.2 2000.85 1175.6C1995.85 1172 1988.95 1170.2 1980.15 1170.2C1971.55 1170.2 1963.75 1173 1956.75 1178.6C1953.15 1189 1951.35 1199.2 1951.35 1209.2Z" fill="white"/>
<line x1="2124" y1="1179" x2="2324" y2="1179" stroke="white" stroke-width="28"/>
<line x1="194" y1="1179" x2="394" y2="1179" stroke="white" stroke-width="28"/>
</g>
<defs>
<filter id="filter0_d" x="165.555" y="41" width="5189.18" height="1377" filterUnits="userSpaceOnUse" color-interpolation-filters="sRGB">
<feFlood flood-opacity="0" result="BackgroundImageFix"/>
<feColorMatrix in="SourceAlpha" type="matrix" values="0 0 0 0 0 0 0 0 0 0 0 0 0 0 0 0 0 0 127 0" result="hardAlpha"/>
<feOffset dx="4" dy="13"/>
<feGaussianBlur stdDeviation="14.5"/>
<feComposite in2="hardAlpha" operator="out"/>
<feColorMatrix type="matrix" values="0 0 0 0 0 0 0 0 0 0 0 0 0 0 0 0 0 0 0.47 0"/>
<feBlend mode="normal" in2="BackgroundImageFix" result="effect1_dropShadow"/>
<feBlend mode="normal" in="SourceGraphic" in2="effect1_dropShadow" result="shape"/>
</filter>
<linearGradient id="paint0_linear" x1="2750" y1="0" x2="2750" y2="1048" gradientUnits="userSpaceOnUse">
<stop offset="0.147404" stop-color="#9400D3"/>
<stop offset="0.261307" stop-color="#4B0082"/>
<stop offset="0.38191" stop-color="#0000FF"/>
<stop offset="0.520938" stop-color="#00FF00"/>
<stop offset="0.639866" stop-color="#FFFF00"/>
<stop offset="0.798995" stop-color="#FF7F00"/>
<stop offset="0.936348" stop-color="#FF0000"/>
</linearGradient>
</defs>
</svg>
