<svg width="678" height="678" viewBox="0 0 678 678" fill="none" xmlns="http://www.w3.org/2000/svg">
<circle cx="338.489" cy="338.748" r="283.762" stroke="#E60000" stroke-width="2.0405"/>
<circle cx="338.489" cy="338.748" r="292.667" stroke="#E60000" stroke-width="8.162"/>
<circle cx="338.647" cy="338.817" r="223.359" fill="#E60000"/>
<path d="M102.487 197.534L108.703 183.624L109.693 184.066L108.413 186.932L142.901 202.345L144.182 199.479L145.171 199.922L138.07 215.811L137.08 215.369L138.361 212.504L105.8 197.952L105.707 198.16L135.765 220.969L132.855 227.481L95.0503 221.586L94.9572 221.795L127.674 236.416L128.955 233.551L129.945 233.993L126.778 241.078L125.788 240.636L127.069 237.771L92.5805 222.358L91.3 225.223L90.3102 224.781L96.5964 210.714L126.523 215.776L102.487 197.534Z" fill="#E60000"/>
<path d="M167.95 152.013L164.757 149.25C159.492 144.696 155.945 142.08 154.116 141.404C152.035 140.61 150.348 140.584 149.053 141.325C148.3 141.73 147.55 142.364 146.804 143.228C146.057 144.091 145.525 144.938 145.208 145.77C144.915 146.574 144.883 147.426 145.11 148.326C145.337 149.227 145.655 150.08 146.064 150.887C146.497 151.664 147.228 152.623 148.254 153.762C149.773 155.378 152.159 157.593 155.41 160.405L158.517 163.093C162.027 166.129 164.643 168.165 166.363 169.2C168.079 170.182 169.428 170.745 170.409 170.889C172.59 171.217 174.49 170.446 176.108 168.576C178.074 166.303 178.394 164.014 177.067 161.71C175.737 159.352 172.698 156.119 167.95 152.013ZM176.939 169.446C172.783 174.251 168.377 176.727 163.722 176.875C159.063 176.97 154.274 174.889 149.354 170.633C144.405 166.353 141.616 161.727 140.987 156.756C140.353 151.732 142.052 146.889 146.084 142.228C150.116 137.567 154.504 135.226 159.25 135.207C163.991 135.133 168.836 137.237 173.785 141.517C178.734 145.798 181.529 150.329 182.172 155.11C182.84 159.862 181.096 164.641 176.939 169.446Z" fill="#E60000"/>
<path d="M214.857 116.093L212.332 117.758L222.855 133.717L225.951 131.675L226.548 132.58L211.066 142.789L210.469 141.884L213.565 139.842L192.77 108.305L189.674 110.347L189.077 109.442L203.464 99.9554C207.593 97.233 210.661 95.5287 212.669 94.8425C214.688 94.1036 216.246 93.8055 217.343 93.9482C219.684 94.1816 221.745 95.6481 223.525 98.3476C225.305 101.047 225.915 103.424 225.356 105.479C224.776 107.502 223.194 109.525 220.609 111.548L220.703 111.691C223.506 110.344 225.803 109.923 227.594 110.428C229.385 110.933 231.192 112.567 233.014 115.33L234.679 117.855C235.768 119.507 236.58 120.566 237.116 121.033C237.683 121.479 238.253 121.513 238.824 121.136C239.396 120.759 239.673 120.212 239.656 119.495C239.649 118.724 239.234 117.403 238.41 115.532L239.282 115.093C240.713 118.023 241.287 120.241 241.005 121.749C240.755 123.235 239.328 124.837 236.724 126.554C234.119 128.271 231.864 128.893 229.956 128.419C228.06 127.893 226.002 125.946 223.782 122.58L221.489 119.102C220.316 117.323 219.219 116.178 218.198 115.667C217.209 115.134 216.095 115.276 214.857 116.093ZM202.06 102.18L211.735 116.853L213.259 115.847C215.07 114.654 216.037 113.218 216.162 111.541C216.318 109.844 215.569 107.74 213.915 105.231L213.004 103.85C211.349 101.341 209.832 99.9718 208.451 99.7432C207.08 99.4619 205.474 99.9286 203.632 101.143L202.06 102.18Z" fill="#E60000"/>
<path d="M288.456 67.0628L293.434 80.5049L292.403 80.8406C289.245 76.5481 286.768 73.734 284.972 72.3983C283.165 71.0264 281.104 70.7175 278.789 71.4715L278.138 71.6835L289.766 107.385L294.378 105.883L294.749 107.023L274.945 113.473L274.574 112.333L279.186 110.831L267.558 75.1294L266.853 75.3592C264.538 76.1131 263.047 77.6187 262.382 79.8758C261.705 82.0967 261.367 85.7877 261.368 90.9486L260.337 91.2844L256.444 77.4889L288.456 67.0628Z" fill="#E60000"/>
<path d="M348.065 103.458C349.926 103.359 351.085 102.955 351.543 102.245C352.038 101.532 352.242 100.36 352.155 98.7261L351.566 87.6715L347.92 87.8658L347.853 86.6122L364.264 85.7378L364.33 86.9914L362.108 87.1098L362.964 103.179L362.11 103.224C361.375 102.311 360.381 101.888 359.128 101.955C358.596 101.983 357.018 102.41 354.396 103.235C351.811 104.059 349.588 104.52 347.726 104.619C341.534 104.949 336.64 103.534 333.043 100.373C329.484 97.2102 327.526 92.2859 327.17 85.6C326.812 78.876 328.302 73.5965 331.64 69.7614C335.017 65.9243 339.706 63.8458 345.708 63.526C348.026 63.4025 350.359 63.583 352.709 64.0673C355.094 64.5116 356.477 64.7237 356.857 64.7034C357.237 64.6832 357.518 64.592 357.7 64.43C357.879 64.2299 358.072 63.9149 358.278 63.4849L358.905 63.4515L360.019 75.7923L358.994 75.847C356.936 72.2613 354.902 69.4744 352.891 67.4863C350.916 65.4581 348.77 64.5058 346.453 64.6292C340.641 64.9389 338.037 70.773 338.642 82.1315L338.882 86.6331C339.186 92.3313 340.118 96.6055 341.68 99.4557C343.277 102.266 345.405 103.6 348.065 103.458Z" fill="#E60000"/>
<path d="M412.354 114.556L410.933 101.623L399.898 99.1968L392.96 110.291L397.14 111.21L396.907 112.269L388.38 110.395L388.613 109.336L391.232 109.912L413.862 74.7484L418.432 75.7531L424.058 117.129L426.622 117.693L426.389 118.751L408.165 114.745L408.397 113.686L412.354 114.556ZM409.118 84.6311L400.669 98.081L410.756 100.299L409.118 84.6311Z" fill="#E60000"/>
<path d="M465.457 140.946C467.111 141.807 468.315 142.049 469.07 141.67C469.858 141.308 470.63 140.402 471.386 138.951L476.499 129.133L473.26 127.446L473.84 126.333L488.416 133.924L487.836 135.037L485.862 134.009L478.43 148.281L477.67 147.886C477.502 146.726 476.862 145.856 475.748 145.276C475.276 145.03 473.701 144.596 471.022 143.973C468.378 143.368 466.229 142.635 464.576 141.774C459.076 138.91 455.581 135.203 454.091 130.652C452.634 126.119 453.452 120.883 456.545 114.945C459.655 108.973 463.622 105.184 468.447 103.579C473.306 101.992 478.401 102.586 483.732 105.363C485.79 106.435 487.707 107.776 489.484 109.388C491.313 110.984 492.396 111.869 492.733 112.045C493.07 112.221 493.359 112.285 493.598 112.238C493.854 112.157 494.18 111.984 494.576 111.718L495.133 112.008L489.818 123.202L488.907 122.727C488.958 118.593 488.623 115.159 487.903 112.425C487.234 109.674 485.87 107.763 483.812 106.691C478.649 104.003 473.441 107.703 468.187 117.791L466.105 121.789C463.469 126.851 462.099 131.005 461.994 134.253C461.941 137.485 463.095 139.716 465.457 140.946Z" fill="#E60000"/>
<path d="M524.551 138.747L546.267 158.969L538.985 167.626L538.233 166.926C539.682 163.026 540.246 159.964 539.925 157.741C539.629 155.491 538.242 153.212 535.765 150.905L534.303 149.543L522.287 162.447L523.707 163.77C525.015 164.988 526.568 165.525 528.367 165.38C530.191 165.208 532.062 164.455 533.979 163.121L534.606 163.704L523.095 176.066L522.385 175.404C523.828 172.85 524.533 170.725 524.5 169.031C524.494 167.362 523.753 165.841 522.278 164.467L521.276 163.533L508.793 176.938L510.38 178.416C512.941 180.801 515.825 182.058 519.033 182.186C522.269 182.34 525.335 181.531 528.233 179.759L529.068 180.536L520.256 189.329L497.33 167.98L498.186 167.061L500.649 169.355L526.16 141.96L523.696 139.666L524.551 138.747Z" fill="#E60000"/>
<path d="M572.954 234.673C566.362 238.91 560.576 240.006 555.598 237.96C550.997 236.078 546.774 232.145 542.927 226.161L534.196 212.576L535.108 211.99L537.144 215.158L568.922 194.733L566.886 191.565L567.798 190.979L577.332 205.812C581.281 211.956 582.979 217.377 582.425 222.074C581.903 226.751 578.746 230.95 572.954 234.673ZM543.161 224.518L544.333 226.343C546.41 229.575 549.027 231.149 552.184 231.064C555.393 230.992 559.686 229.227 565.062 225.772L567.846 223.982C575.047 219.354 578.499 215.191 578.202 211.493C578.063 209.728 577.222 207.646 575.679 205.246L574.939 204.094L543.161 224.518Z" fill="#E60000"/>
<path d="M573.939 481.486L567.723 495.396L566.733 494.954L568.013 492.089L533.525 476.676L532.244 479.541L531.255 479.099L538.356 463.209L539.346 463.651L538.065 466.517L570.626 481.068L570.719 480.86L540.661 458.051L543.571 451.539L581.376 457.434L581.469 457.225L548.752 442.604L547.471 445.469L546.481 445.027L549.648 437.942L550.638 438.384L549.357 441.25L583.845 456.663L585.126 453.797L586.116 454.24L579.83 468.306L549.903 463.244L573.939 481.486Z" fill="#E60000"/>
<path d="M508.476 527.007L511.669 529.77C516.934 534.324 520.481 536.94 522.311 537.617C524.391 538.41 526.078 538.436 527.373 537.695C528.126 537.29 528.876 536.656 529.622 535.793C530.369 534.93 530.901 534.082 531.218 533.25C531.511 532.447 531.543 531.595 531.316 530.694C531.089 529.794 530.771 528.94 530.362 528.134C529.929 527.356 529.198 526.397 528.172 525.258C526.653 523.642 524.267 521.428 521.016 518.615L517.909 515.927C514.399 512.891 511.783 510.855 510.063 509.82C508.347 508.839 506.998 508.276 506.017 508.131C503.836 507.803 501.936 508.575 500.318 510.445C498.352 512.718 498.032 515.006 499.359 517.311C500.689 519.669 503.728 522.901 508.476 527.007ZM499.487 509.574C503.643 504.77 508.049 502.293 512.704 502.145C517.363 502.05 522.152 504.131 527.072 508.387C532.021 512.667 534.81 517.293 535.44 522.264C536.073 527.289 534.374 532.131 530.342 536.792C526.31 541.453 521.922 543.794 517.176 543.814C512.435 543.887 507.59 541.784 502.641 537.503C497.692 533.222 494.897 528.691 494.254 523.91C493.586 519.158 495.331 514.379 499.487 509.574Z" fill="#E60000"/>
<path d="M461.569 562.927L464.094 561.263L453.571 545.303L450.475 547.345L449.878 546.44L465.36 536.231L465.957 537.136L462.861 539.178L483.656 570.715L486.752 568.673L487.349 569.578L472.962 579.065C468.833 581.787 465.765 583.492 463.757 584.178C461.738 584.917 460.18 585.215 459.083 585.072C456.742 584.839 454.681 583.372 452.901 580.673C451.121 577.973 450.511 575.596 451.07 573.541C451.65 571.518 453.232 569.495 455.817 567.472L455.723 567.329C452.92 568.676 450.623 569.097 448.832 568.592C447.041 568.087 445.234 566.453 443.412 563.69L441.747 561.165C440.659 559.514 439.846 558.454 439.31 557.988C438.743 557.542 438.173 557.507 437.602 557.884C437.03 558.261 436.753 558.808 436.77 559.526C436.777 560.296 437.192 561.617 438.016 563.489L437.144 563.927C435.713 560.997 435.139 558.779 435.421 557.271C435.671 555.785 437.098 554.183 439.702 552.466C442.307 550.749 444.562 550.127 446.47 550.601C448.366 551.128 450.424 553.074 452.644 556.441L454.937 559.918C456.11 561.697 457.207 562.842 458.228 563.354C459.217 563.886 460.331 563.744 461.569 562.927ZM474.366 576.84L464.691 562.168L463.167 563.173C461.356 564.366 460.389 565.802 460.264 567.479C460.108 569.177 460.857 571.28 462.511 573.789L463.422 575.171C465.077 577.68 466.594 579.049 467.975 579.277C469.346 579.558 470.952 579.092 472.794 577.877L474.366 576.84Z" fill="#E60000"/>
<path d="M387.97 611.957L382.992 598.515L384.023 598.18C387.181 602.472 389.658 605.286 391.453 606.622C393.261 607.994 395.322 608.303 397.637 607.549L398.288 607.337L386.66 571.635L382.048 573.137L381.677 571.998L401.481 565.548L401.852 566.687L397.24 568.189L408.868 603.891L409.573 603.661C411.888 602.907 413.378 601.402 414.044 599.144C414.721 596.924 415.059 593.233 415.058 588.072L416.089 587.736L419.982 601.531L387.97 611.957Z" fill="#E60000"/>
<path d="M328.361 575.562C326.5 575.661 325.341 576.066 324.883 576.776C324.388 577.488 324.184 578.661 324.271 580.294L324.86 591.349L328.507 591.154L328.573 592.408L312.162 593.282L312.096 592.029L314.318 591.91L313.462 575.841L314.316 575.796C315.051 576.709 316.045 577.132 317.298 577.066C317.83 577.037 319.408 576.61 322.03 575.785C324.615 574.961 326.838 574.5 328.7 574.401C334.892 574.071 339.786 575.486 343.383 578.647C346.942 581.81 348.9 586.734 349.256 593.42C349.615 600.144 348.124 605.424 344.786 609.259C341.409 613.096 336.72 615.174 330.718 615.494C328.4 615.618 326.067 615.437 323.717 614.953C321.332 614.509 319.949 614.297 319.569 614.317C319.189 614.337 318.908 614.428 318.726 614.59C318.547 614.79 318.354 615.105 318.148 615.535L317.521 615.569L316.407 603.228L317.432 603.173C319.49 606.759 321.524 609.546 323.535 611.534C325.51 613.562 327.656 614.515 329.973 614.391C335.785 614.081 338.389 608.247 337.784 596.889L337.544 592.387C337.24 586.689 336.308 582.415 334.746 579.565C333.149 576.754 331.021 575.42 328.361 575.562Z" fill="#E60000"/>
<path d="M264.072 564.465L265.493 577.397L276.528 579.823L283.466 568.729L279.286 567.81L279.519 566.751L288.046 568.626L287.813 569.685L285.194 569.109L262.564 604.272L257.994 603.267L252.368 561.891L249.804 561.328L250.037 560.269L268.261 564.276L268.028 565.335L264.072 564.465ZM267.308 594.389L275.757 580.939L265.669 578.721L267.308 594.389Z" fill="#E60000"/>
<path d="M210.969 538.074C209.315 537.213 208.111 536.972 207.356 537.351C206.568 537.712 205.796 538.618 205.04 540.069L199.927 549.887L203.166 551.574L202.586 552.688L188.01 545.097L188.59 543.983L190.564 545.011L197.996 530.739L198.756 531.134C198.924 532.294 199.564 533.164 200.678 533.744C201.15 533.99 202.725 534.424 205.404 535.047C208.048 535.652 210.197 536.385 211.85 537.246C217.35 540.11 220.845 543.818 222.335 548.368C223.792 552.901 222.974 558.137 219.881 564.075C216.771 570.048 212.804 573.836 207.979 575.441C203.12 577.028 198.025 576.434 192.694 573.658C190.636 572.586 188.719 571.244 186.942 569.632C185.113 568.037 184.03 567.151 183.693 566.975C183.356 566.799 183.067 566.735 182.828 566.782C182.572 566.863 182.246 567.036 181.85 567.302L181.293 567.012L186.608 555.819L187.519 556.293C187.468 560.427 187.802 563.861 188.523 566.595C189.192 569.346 190.556 571.257 192.614 572.329C197.777 575.018 202.985 571.318 208.239 561.229L210.321 557.231C212.957 552.17 214.327 548.015 214.431 544.767C214.485 541.535 213.331 539.304 210.969 538.074Z" fill="#E60000"/>
<path d="M151.875 540.273L130.159 520.051L137.441 511.394L138.193 512.094C136.744 515.995 136.18 519.056 136.501 521.279C136.797 523.529 138.184 525.808 140.661 528.116L142.123 529.477L154.139 516.573L152.719 515.251C151.411 514.032 149.858 513.495 148.059 513.64C146.235 513.813 144.364 514.566 142.447 515.899L141.82 515.316L153.331 502.955L154.041 503.616C152.598 506.17 151.893 508.295 151.926 509.99C151.932 511.658 152.673 513.18 154.148 514.554L155.15 515.487L167.633 502.082L166.046 500.604C163.485 498.219 160.601 496.962 157.393 496.834C154.157 496.681 151.091 497.49 148.193 499.262L147.358 498.484L156.17 489.691L179.096 511.041L178.24 511.959L175.777 509.665L150.266 537.06L152.73 539.354L151.875 540.273Z" fill="#E60000"/>
<path d="M103.472 444.347C110.064 440.11 115.85 439.014 120.828 441.061C125.429 442.942 129.652 446.875 133.499 452.86L142.23 466.444L141.318 467.031L139.282 463.862L107.504 484.287L109.54 487.455L108.628 488.041L99.0944 473.208C95.1452 467.064 93.4474 461.643 94.0009 456.946C94.5225 452.27 97.6795 448.07 103.472 444.347ZM133.265 454.502L132.093 452.678C130.016 449.445 127.399 447.872 124.242 447.956C121.033 448.029 116.74 449.793 111.364 453.248L108.579 455.038C101.379 459.666 97.9272 463.829 98.224 467.527C98.3633 469.292 99.2042 471.374 100.747 473.774L101.487 474.926L133.265 454.502Z" fill="#E60000"/>
<rect x="4.94706" y="337.172" width="647.191" height="163.478" rx="14.2835" transform="rotate(-14 4.94706 337.172)" fill="white" stroke="#E60000" stroke-width="8.162"/>
<rect x="20.1518" y="346.308" width="621.333" height="137.734" rx="6.1215" transform="rotate(-14 20.1518 346.308)" fill="white" stroke="#E60000" stroke-width="2.0405"/>
<path d="M149.857 361.833L168.359 357.22L168.687 358.537L164.876 359.487L176.314 405.361L180.125 404.411L180.453 405.727L159.318 410.997L158.99 409.68L162.801 408.73L152.003 365.42L151.726 365.489L152.458 412.707L143.796 414.867L120.421 373.073L120.144 373.142L130.994 416.66L134.805 415.71L135.134 417.027L125.709 419.377L125.381 418.06L129.192 417.11L117.755 371.236L113.944 372.186L113.615 370.869L132.325 366.204L150.439 399.594L149.857 361.833ZM211.554 375.23L210.275 370.102C208.167 361.648 206.421 356.415 205.037 354.405C203.479 352.095 201.771 350.852 199.912 350.678C198.85 350.55 197.626 350.659 196.24 351.005C194.854 351.35 193.699 351.835 192.774 352.458C191.896 353.069 191.249 353.917 190.833 355.003C190.416 356.088 190.127 357.19 189.965 358.31C189.848 359.419 189.905 360.926 190.135 362.831C190.526 365.58 191.372 369.564 192.674 374.785L193.918 379.774C195.323 385.41 196.533 389.377 197.548 391.676C198.597 393.917 199.572 395.465 200.472 396.32C202.468 398.227 204.968 398.806 207.971 398.057C211.621 397.147 213.597 395.035 213.899 391.721C214.236 388.349 213.454 382.852 211.554 375.23ZM208.195 399.547C200.48 401.47 194.187 400.831 189.316 397.629C184.48 394.37 181.077 388.79 179.107 380.89C177.126 372.945 177.604 366.201 180.54 360.66C183.512 355.061 188.739 351.329 196.223 349.463C203.707 347.597 209.885 348.363 214.756 351.761C219.661 355.102 223.105 360.745 225.086 368.691C227.067 376.637 226.664 383.288 223.878 388.644C221.138 393.989 215.91 397.623 208.195 399.547ZM250.625 362.176L246.952 363.092L252.74 386.306L257.244 385.183L257.572 386.499L235.051 392.115L234.723 390.798L239.227 389.675L227.789 343.801L223.285 344.924L222.957 343.607L243.884 338.39C249.89 336.892 254.221 336.156 256.877 336.181C259.567 336.148 261.53 336.443 262.765 337.068C265.432 338.317 267.255 340.904 268.234 344.831C269.213 348.758 268.946 351.818 267.431 354.011C265.906 356.158 263.197 357.888 259.305 359.202L259.356 359.41C263.225 358.985 266.112 359.443 268.016 360.784C269.921 362.125 271.374 364.805 272.376 368.824L273.292 372.496C273.891 374.899 274.409 376.487 274.848 377.261C275.332 378.023 275.99 378.301 276.822 378.093C277.653 377.886 278.208 377.355 278.486 376.501C278.798 375.589 278.857 373.857 278.662 371.305L279.875 371.15C280.346 375.203 280.101 378.061 279.142 379.723C278.228 381.374 275.878 382.671 272.09 383.616C268.301 384.56 265.38 384.357 263.325 383.004C261.305 381.594 259.685 378.441 258.464 373.544L257.203 368.485C256.558 365.898 255.739 364.09 254.747 363.062C253.8 362.022 252.426 361.727 250.625 362.176ZM241.302 340.432L246.624 361.775L248.841 361.222C251.474 360.566 253.213 359.273 254.057 357.345C254.948 355.406 254.938 352.612 254.028 348.962L253.527 346.952C252.617 343.303 251.394 341.056 249.859 340.212C248.358 339.31 246.268 339.194 243.589 339.862L241.302 340.432ZM312.142 321.371L317.172 338.591L315.855 338.92C312.291 333.282 309.446 329.551 307.323 327.725C305.188 325.853 302.642 325.285 299.685 326.022L298.854 326.23L310.222 371.827L316.112 370.358L316.475 371.813L291.182 378.12L290.819 376.664L296.709 375.196L285.341 329.599L284.44 329.824C281.483 330.561 279.49 332.309 278.461 335.068C277.42 337.781 276.672 342.359 276.218 348.802L274.901 349.131L271.257 331.565L312.142 321.371ZM352.222 362.165C354.485 361.6 355.814 360.827 356.207 359.846C356.646 358.853 356.619 357.364 356.123 355.377L352.771 341.934L348.336 343.04L347.956 341.515L367.914 336.539L368.294 338.064L365.591 338.737L370.463 358.279L369.424 358.538C368.304 357.59 366.982 357.307 365.458 357.687C364.811 357.848 362.975 358.748 359.948 360.385C356.968 362.012 354.346 363.107 352.082 363.672C344.552 365.549 338.201 364.973 333.03 361.945C327.905 358.904 324.328 353.319 322.301 345.188C320.262 337.011 320.838 330.17 324.029 324.664C327.266 319.146 332.534 315.477 339.833 313.657C342.651 312.955 345.561 312.622 348.564 312.658C351.601 312.637 353.35 312.569 353.812 312.454C354.274 312.338 354.597 312.16 354.782 311.917C354.956 311.629 355.118 311.196 355.268 310.618L356.03 310.428L360.334 325.327L359.087 325.638C355.706 321.722 352.544 318.781 349.6 316.816C346.691 314.793 343.828 314.133 341.01 314.836C333.942 316.598 332.13 324.386 335.574 338.199L336.939 343.673C338.666 350.603 340.828 355.633 343.425 358.764C346.055 361.837 348.988 362.971 352.222 362.165ZM402.956 348.853L394.165 335.146L380.445 338.567L378.841 354.865L384.038 353.569L384.366 354.886L373.764 357.53L373.436 356.213L376.693 355.401L382.494 303.389L388.176 301.972L417.508 345.224L420.696 344.43L421.024 345.746L398.364 351.396L398.036 350.079L402.956 348.853ZM382.676 317.107L380.688 336.887L393.231 333.76L382.676 317.107ZM444.865 339.066C447.128 338.502 448.457 337.729 448.85 336.748C449.289 335.755 449.261 334.265 448.766 332.279L445.414 318.835L440.979 319.941L440.599 318.417L460.557 313.441L460.937 314.965L458.234 315.639L463.106 335.18L462.067 335.44C460.947 334.492 459.625 334.208 458.101 334.588C457.454 334.75 455.618 335.649 452.591 337.287C449.611 338.913 446.989 340.009 444.725 340.573C437.195 342.451 430.844 341.875 425.673 338.846C420.548 335.806 416.971 330.22 414.944 322.09C412.905 313.913 413.481 307.071 416.672 301.565C419.909 296.047 425.177 292.379 432.476 290.559C435.294 289.856 438.204 289.523 441.206 289.56C444.244 289.538 445.993 289.47 446.455 289.355C446.917 289.24 447.24 289.061 447.425 288.819C447.599 288.53 447.761 288.097 447.911 287.52L448.673 287.33L452.977 302.229L451.73 302.54C448.349 298.623 445.187 295.682 442.243 293.717C439.334 291.695 436.471 291.035 433.653 291.737C426.585 293.5 424.773 301.287 428.217 315.1L429.582 320.575C431.309 327.504 433.471 332.535 436.068 335.666C438.698 338.739 441.631 339.872 444.865 339.066ZM457.45 285.142L493.484 276.157L497.598 289.705L496.351 290.016C493.247 285.834 490.42 283.153 487.868 281.974C485.306 280.748 481.968 280.648 477.857 281.673L475.432 282.278L480.77 303.69L483.126 303.103C485.298 302.561 486.921 301.298 487.996 299.312C489.06 297.281 489.546 294.804 489.456 291.882L490.495 291.623L495.609 312.135L494.431 312.429C492.736 309.171 490.988 306.982 489.187 305.861C487.433 304.728 485.331 304.467 482.883 305.077L481.219 305.492L486.766 327.736L489.399 327.079C493.649 326.02 496.936 323.851 499.259 320.573C501.628 317.283 502.872 313.514 502.99 309.264L504.376 308.919L507.588 324.164L469.544 333.649L469.164 332.124L473.253 331.105L461.919 285.647L457.83 286.666L457.45 285.142ZM554.555 285.809C556.927 295.326 555.901 302.623 551.475 307.701C547.396 312.398 541.037 315.824 532.398 317.978L512.787 322.867L512.459 321.551L517.032 320.41L505.594 274.536L501.021 275.677L500.693 274.36L522.105 269.021C530.975 266.81 538.082 266.976 543.427 269.52C548.761 272.017 552.47 277.447 554.555 285.809ZM530.545 317.041L533.178 316.385C537.844 315.221 540.761 312.752 541.93 308.977C543.133 305.144 542.768 299.347 540.832 291.585L539.83 287.566C537.239 277.172 533.692 271.407 529.189 270.273C527.041 269.729 524.235 269.889 520.77 270.753L519.107 271.167L530.545 317.041Z" fill="#E60000"/>
</svg>
